HIERARCHY
ROOT Hips
{
	OFFSET 0.000000 0.000000 0.000000 
	CHANNELS 6 Xposition Yposition Zposition Zrotation Yrotation Xrotation
	JOINT LeftUpLeg
	{
		OFFSET 1.363060 -1.794630 0.839290 
		CHANNELS 3 Zrotation Yrotation Xrotation
		JOINT LeftLeg
		{
			OFFSET 2.448110 -6.726130 0.000000 
			CHANNELS 3 Zrotation Yrotation Xrotation
			JOINT LeftFoot
			{
				OFFSET 2.562200 -7.039590 0.000000 
				CHANNELS 3 Zrotation Yrotation Xrotation
				JOINT LeftToeBase
				{
					OFFSET 0.157640 -0.433110 2.322550 
					CHANNELS 3 Zrotation Yrotation Xrotation
					End Site
					{
						OFFSET 0.000000 0.000000 0.000000 
					}
				}
			}
		}
	}
	JOINT RightUpLeg
	{
		OFFSET -1.305520 -1.794630 0.839290 
		CHANNELS 3 Zrotation Yrotation Xrotation
		JOINT RightLeg
		{
			OFFSET -2.542530 -6.985550 0.000000 
			CHANNELS 3 Zrotation Yrotation Xrotation
			JOINT RightFoot
			{
				OFFSET -2.568260 -7.056230 0.000000 
				CHANNELS 3 Zrotation Yrotation Xrotation
				JOINT RightToeBase
				{
					OFFSET -0.164730 -0.452590 2.363150 
					CHANNELS 3 Zrotation Yrotation Xrotation
					End Site
					{
						OFFSET 0.000000 0.000000 0.000000 
					}
				}
			}
		}
	}
	JOINT Spine
	{
		OFFSET 0.028270 2.035590 -0.193380 
		CHANNELS 3 Zrotation Yrotation Xrotation
		JOINT Spine1
		{
			OFFSET 0.056720 2.048850 -0.042750 
			CHANNELS 3 Zrotation Yrotation Xrotation
			JOINT Neck1
			{
				OFFSET -0.054170 1.746240 0.172020 
				CHANNELS 3 Zrotation Yrotation Xrotation
				JOINT Head
				{
					OFFSET 0.104070 1.761360 -0.123970 
					CHANNELS 3 Zrotation Yrotation Xrotation
					End Site
					{
						OFFSET 0.000000 0.000000 0.000000 
					}
				}
			}
			JOINT LeftArm
			{
				OFFSET 3.362410 1.200890 -0.311210 
				CHANNELS 3 Zrotation Yrotation Xrotation
				JOINT LeftForeArm
				{
					OFFSET 4.983000 -0.000000 -0.000000 
					CHANNELS 3 Zrotation Yrotation Xrotation
					JOINT LeftHand
					{
						OFFSET 3.483560 -0.000000 -0.000000 
						CHANNELS 3 Zrotation Yrotation Xrotation
						JOINT LeftHandIndex1
						{
							OFFSET 0.715260 -0.000000 -0.000000 
							CHANNELS 3 Zrotation Yrotation Xrotation
							End Site
							{
								OFFSET 0.000000 0.000000 0.000000 
							}
						}
					}
				}
			}
			JOINT RightArm
			{
				OFFSET -3.136600 1.374050 -0.404650 
				CHANNELS 3 Zrotation Yrotation Xrotation
				JOINT RightForeArm
				{
					OFFSET -5.241900 -0.000000 -0.000000 
					CHANNELS 3 Zrotation Yrotation Xrotation
					JOINT RightHand
					{
						OFFSET -3.444170 -0.000000 -0.000000 
						CHANNELS 3 Zrotation Yrotation Xrotation
						JOINT RightHandIndex1
						{
							OFFSET -0.622530 -0.000000 -0.000000 
							CHANNELS 3 Zrotation Yrotation Xrotation
							End Site
							{
								OFFSET 0.000000 0.000000 0.000000 
							}
						}
					}
				}
			}
		}
	}
}
MOTION
Frames: 17
Frame Time: 0.041667
-8.214770 17.671302 -33.108642 5.960585 0.910577 2.807746 -27.685312 -0.548319 7.111467 -0.365440 4.596426 16.587749 0.836259 -1.975906 1.231240 0.425400 -4.186200 -11.601100 14.390371 9.841971 -28.080369 0.253277 -5.639464 14.790752 1.600181 -9.904987 7.667797 -0.033800 1.186200 -3.261400 0.859913 -5.452672 -1.345668 5.614320 -2.707379 0.378189 3.971296 2.076712 10.264409 3.798900 0.550600 6.271000 -79.912671 -5.316373 15.438834 12.177817 -22.916701 -3.259320 -1.558620 -3.194692 8.021652 -7.125000 0.000000 0.000000 81.478001 -3.437494 9.199348 -10.955019 17.257689 -2.332108 0.700111 -0.927087 12.784956 7.125000 0.000000 0.000000 
-8.244746 17.668941 -32.920058 5.926143 1.406027 2.826443 -27.520370 -0.798678 7.575484 -0.316599 4.718230 16.963120 0.903168 -2.310949 1.758710 0.629400 -5.076300 -14.126400 14.619349 9.717722 -27.928629 0.098544 -6.119528 16.121521 1.692177 -10.146920 7.137351 -0.044900 1.367100 -3.759600 0.464928 -4.798760 -0.957381 4.106269 -2.449350 1.654410 4.052717 0.684610 10.823081 3.632000 -0.067200 6.971500 -78.702824 -6.816728 17.247383 12.180617 -22.893655 -3.236486 -1.518779 -3.317494 7.612564 -7.125000 0.000000 0.000000 83.188743 -2.503757 6.794236 -11.101514 17.409823 -2.385966 0.626819 -0.916483 12.857460 7.125000 0.000000 0.000000 
-8.280882 17.688446 -32.719667 6.252343 2.575816 2.468782 -27.335612 -1.399274 8.500406 -0.282648 4.789932 17.231160 1.019282 -2.883244 2.320273 0.824800 -5.794400 -16.189000 14.550378 9.310002 -27.176474 -0.030172 -6.365956 16.904781 1.931798 -11.034580 7.169218 -0.083200 1.860200 -5.119500 1.261198 -6.075663 -1.860698 7.706412 -2.878368 -1.566798 3.434751 1.585937 11.591396 3.599700 0.127900 7.018300 -81.484968 -3.404937 15.480678 12.363115 -23.173300 -3.334005 -1.580999 -3.301803 8.247544 -7.125000 0.000000 0.000000 80.088474 -5.683436 9.488808 -11.288180 17.857164 -2.494029 0.689251 -0.816824 11.404229 7.125000 0.000000 0.000000 
-8.296178 17.690294 -32.572044 6.375629 0.085480 2.717233 -27.947011 -0.401946 7.985253 -0.221524 4.874664 17.479901 0.690761 -1.536752 2.413030 1.121400 -6.726800 -18.908500 14.845350 10.615123 -27.658792 -0.083072 -6.552989 17.482356 1.458407 -9.793222 9.497234 -0.121700 2.249200 -6.194800 1.514247 -5.231471 -2.375484 9.323567 -2.222644 -3.685711 3.178726 1.911387 11.886196 3.538200 0.186300 7.175200 -82.609675 -1.879907 14.808608 12.329283 -23.071680 -3.307989 -1.694209 -3.207721 8.846994 -7.125000 0.000000 0.000000 78.820942 -7.112974 10.287091 -11.341508 17.914042 -2.505208 0.737633 -0.800714 10.976549 7.125000 0.000000 0.000000 
-8.323999 17.744087 -32.359950 6.093403 2.036787 2.551285 -27.217799 -1.779561 9.175263 -0.207909 4.956473 17.735456 0.797074 -2.042668 3.387761 1.360100 -7.382000 -20.852000 14.867685 10.133324 -26.889318 -0.173632 -6.693828 17.842584 1.840952 -11.377336 9.650682 -0.103000 2.069200 -5.697000 1.489430 -5.398329 -2.377939 8.949181 -2.317854 -3.893854 3.079814 1.209704 12.093229 3.388900 -0.146900 7.561300 -82.564099 -2.123414 16.012874 12.260866 -22.901040 -3.248349 -1.766001 -3.188055 9.234254 -7.125000 0.000000 0.000000 79.301922 -7.184760 8.480113 -11.396284 17.975722 -2.525026 0.689543 -0.846862 10.880500 7.125000 0.000000 0.000000 
-8.349869 17.772421 -32.163666 5.871520 2.598330 2.434500 -26.837025 -2.440050 9.657997 -0.127627 5.177446 18.383927 0.785809 -2.055479 4.779357 1.428200 -7.556700 -21.375500 15.076547 10.111992 -26.246508 -0.199776 -6.685863 17.855978 1.968238 -12.022140 10.163246 -0.072900 1.741900 -4.792900 1.792920 -6.409755 -2.585554 9.930089 -2.727394 -4.311243 3.039031 2.082491 12.085284 3.548200 0.207800 7.245600 -83.476886 -0.633873 14.267745 12.328719 -23.084636 -3.314517 -1.726690 -3.142171 8.925387 -7.125000 0.000000 0.000000 78.107667 -7.802681 9.813707 -11.188332 17.766697 -2.462364 0.640024 -0.917200 10.680495 7.125000 0.000000 0.000000 
-8.368655 17.799625 -31.981755 5.614550 2.535167 2.418196 -26.617135 -2.942956 9.764218 -0.009342 5.481953 19.245263 0.681049 -1.611754 6.118510 1.447500 -7.605400 -21.521900 15.482867 10.040658 -25.810768 -0.190296 -6.632282 17.785723 1.829898 -11.714207 11.007582 -0.046500 1.391200 -3.825800 2.052726 -7.107816 -2.760491 10.712491 -2.993598 -4.630780 3.035160 2.983646 12.057733 3.684000 0.597500 7.005300 -84.351250 0.449582 12.196295 12.346331 -23.152611 -3.334511 -1.692426 -3.153178 9.234768 -7.125000 0.000000 0.000000 77.086739 -8.323825 11.471668 -11.136972 17.757264 -2.453882 0.666738 -0.892108 10.235997 7.125000 0.000000 0.000000 
-8.382412 17.836685 -31.798200 5.099385 2.441910 2.396255 -26.087261 -3.485522 9.544488 0.176867 5.937725 20.533506 0.586403 -1.156734 7.228011 1.470400 -7.662800 -21.694600 16.255384 9.899371 -25.402347 -0.185573 -6.579641 17.765726 1.670030 -11.292298 11.809149 -0.008500 0.595000 -1.635100 2.572091 -8.253811 -3.144966 12.403381 -3.346448 -5.601166 2.864734 4.408270 11.996644 3.815200 1.195300 6.581600 -86.058260 2.497668 9.263962 12.462496 -23.385777 -3.398170 -1.746993 -3.149217 9.579005 -7.125000 0.000000 0.000000 75.069799 -9.554209 14.993684 -11.303615 18.099960 -2.531477 0.839492 -0.681531 9.542897 7.125000 0.000000 0.000000 
-8.398118 17.866456 -31.616597 4.583322 2.292765 2.471946 -25.681908 -3.844871 9.087532 0.421668 6.493185 22.124136 0.553682 -0.919665 8.540964 1.497400 -7.729700 -21.896000 17.005267 9.569509 -25.055235 -0.185663 -6.571056 17.806434 1.550759 -10.996828 12.389219 -0.000600 -0.152400 0.418800 2.247092 -7.036710 -2.899646 10.693539 -2.897118 -5.136617 2.859472 3.149379 11.921466 3.619500 0.663300 6.911000 -85.004822 1.436211 11.258094 12.171738 -22.869474 -3.236002 -1.764094 -3.068344 9.786705 -7.125000 0.000000 0.000000 76.814893 -9.094076 12.352736 -11.431649 18.222733 -2.579450 0.764340 -0.729963 9.864595 7.125000 0.000000 0.000000 
-8.413107 17.887194 -31.432735 4.310941 1.940166 2.431091 -25.581077 -3.914013 8.537257 0.725196 7.100356 23.898972 0.488808 -0.520180 9.707879 1.623600 -8.033700 -22.816400 17.617174 9.229649 -24.561136 -0.197234 -6.584062 17.956631 1.432313 -10.493046 12.480768 -0.000200 -0.100200 0.275300 2.039866 -6.218233 -2.714478 9.645439 -2.588522 -4.683629 2.903132 2.517370 11.847205 3.517700 0.414300 7.146500 -84.484878 0.810045 12.186079 12.030436 -22.603829 -3.154018 -1.746663 -3.056922 9.883356 -7.125000 0.000000 0.000000 77.838749 -8.506282 10.305353 -11.376791 18.115240 -2.562834 0.622111 -0.883861 10.161804 7.125000 0.000000 0.000000 
-8.432509 17.908752 -31.253081 4.046888 1.669343 2.262598 -25.353470 -3.902866 7.904238 1.056658 7.714620 25.742462 0.493012 -0.360909 11.113732 1.747200 -8.318400 -23.685400 18.210154 9.154357 -23.936456 -0.237984 -6.647751 18.292496 1.340021 -9.985975 12.336208 0.000000 0.009300 -0.025500 2.135928 -6.242513 -2.773106 9.875525 -2.562851 -4.928297 2.908116 2.795406 11.817855 3.557300 0.536300 7.106100 -84.950522 1.455636 11.507187 12.042420 -22.622108 -3.147415 -1.797875 -3.064970 9.876495 -7.125000 0.000000 0.000000 77.562739 -8.728592 10.384391 -11.326854 18.122992 -2.576583 0.428932 -1.123865 10.201546 7.125000 0.000000 0.000000 
-8.450167 17.927949 -31.080512 3.663193 1.216978 2.095079 -24.945591 -3.667969 7.077533 1.397485 8.308247 27.570131 0.601608 -0.490993 13.279579 1.695700 -8.201200 -23.326800 18.922760 9.208424 -23.401283 -0.285264 -6.737977 18.725560 1.187410 -9.191353 12.112650 -0.006900 -0.536100 1.473200 2.304757 -6.289992 -2.872589 10.378300 -2.519869 -5.342328 2.852540 3.007217 11.955020 3.601400 0.592500 7.067100 -85.561000 2.167718 10.441260 11.891758 -22.389122 -3.062164 -1.875169 -3.007072 10.080583 -7.125000 0.000000 0.000000 76.916902 -9.088935 10.953469 -11.313138 18.084220 -2.556501 0.550231 -0.932439 10.153522 7.125000 0.000000 0.000000 
-8.465463 17.940474 -30.910919 3.546898 0.581312 2.094008 -24.830690 -3.246332 5.976532 1.758471 8.894352 29.387086 0.725682 -0.467699 15.887854 1.301100 -7.226400 -20.388000 19.326905 9.178008 -23.082237 -0.321010 -6.820016 19.085725 1.026607 -8.409370 11.969381 -0.012700 -0.726800 1.997500 2.236069 -5.860430 -2.842208 10.042188 -2.316861 -5.302919 2.878774 2.740446 12.139109 3.593000 0.459100 7.181800 -85.543878 2.278968 10.016877 11.680079 -22.047090 -2.953055 -1.858536 -2.989247 10.351873 -7.125000 0.000000 0.000000 77.178970 -8.941105 10.324737 -11.219175 17.879962 -2.489480 0.646944 -0.842863 10.583087 7.125000 0.000000 0.000000 
-8.486713 17.961416 -30.734243 3.449232 0.213271 2.153023 -24.627851 -2.928481 4.821541 2.141509 9.474329 31.164992 0.803736 -0.035268 18.374160 0.870900 -5.950100 -16.639600 19.661909 9.057275 -22.678881 -0.352887 -6.869010 19.321917 1.004260 -8.134589 11.555590 -0.019000 -0.889400 2.444500 2.122931 -5.468418 -2.781007 9.530108 -2.153060 -5.100376 2.898057 2.458656 12.168714 3.533700 0.349700 7.278800 -85.293563 2.325790 9.963754 11.632668 -21.979569 -2.938531 -1.676271 -3.117609 10.115703 -7.125000 0.000000 0.000000 77.742222 -8.761755 9.935451 -11.270517 17.920648 -2.500937 0.673340 -0.844223 10.844538 7.125000 0.000000 0.000000 
-8.509811 17.983180 -30.562803 3.227531 -0.112269 2.150157 -24.283750 -2.656338 3.723893 2.543463 10.037749 32.860536 0.948898 0.720875 21.772957 0.486400 -4.472200 -12.409100 20.138606 8.994028 -22.083665 -0.364696 -6.864611 19.429573 0.954920 -7.733791 11.120164 -0.026700 -1.054400 2.898500 1.997510 -4.933458 -2.658444 8.909394 -1.942803 -4.781558 2.999745 1.999402 12.039852 3.509500 0.172000 7.396700 -85.016249 1.922190 9.925808 11.523640 -21.778288 -2.891316 -1.543132 -3.147781 10.129156 -7.125000 0.000000 0.000000 78.381308 -8.258687 9.457981 -11.368883 18.022378 -2.536101 0.662538 -0.865214 10.723427 7.125000 0.000000 0.000000 
-8.534039 18.007099 -30.393313 2.842835 -0.270577 2.011668 -23.683668 -2.548400 2.741167 2.976894 10.604431 34.502388 1.454756 1.517533 27.563580 0.011600 0.696400 1.913800 20.816608 8.747988 -21.263716 -0.345182 -6.767663 19.295822 0.886226 -7.324315 10.953144 -0.064400 -1.637900 4.505900 1.989608 -4.633144 -2.581660 8.677250 -1.821215 -4.643566 3.120314 1.823062 12.033429 3.548700 0.102900 7.529000 -85.070209 1.762974 9.644558 11.378512 -21.517130 -2.815251 -1.585847 -3.073076 10.356833 -7.125000 0.000000 0.000000 78.573515 -7.925393 9.552906 -11.441989 18.124222 -2.574621 0.602919 -0.940266 10.434222 7.125000 0.000000 0.000000 
-8.564426 18.040053 -30.215302 2.449021 0.368535 1.765833 -22.980378 -3.214408 2.014874 3.375287 11.145484 36.299829 1.708301 1.077215 29.024432 0.007700 0.565100 1.552900 21.489228 8.262709 -20.160970 -0.322382 -6.595887 18.942264 1.039485 -7.810102 10.632792 -0.128100 -2.307200 6.355500 2.222692 -5.311718 -2.667121 9.341125 -2.115154 -4.813017 3.267235 2.581478 12.321226 3.738800 0.420000 7.546300 -85.766777 2.444190 8.298013 11.287864 -21.395455 -2.775486 -1.580848 -3.058161 10.423261 -7.125000 0.000000 0.000000 77.761403 -8.122316 11.159458 -11.434337 18.119296 -2.565351 0.696665 -0.840628 10.149043 7.125000 0.000000 0.000000 
